<?xml version="1.0" encoding="utf-8"?>
<!-- Generator: Adobe Illustrator 16.0.0, SVG Export Plug-In . SVG Version: 6.00 Build 0)  -->
<!DOCTYPE svg PUBLIC "-//W3C//DTD SVG 1.1//EN" "http://www.w3.org/Graphics/SVG/1.1/DTD/svg11.dtd">
<svg version="1.1" id="Layer_1" xmlns="http://www.w3.org/2000/svg" xmlns:xlink="http://www.w3.org/1999/xlink" x="0px" y="0px"
	 width="38.5px" height="32px" viewBox="276.5 490.5 38.5 32" enable-background="new 276.5 490.5 38.5 32" xml:space="preserve">
<g>
	<g>
		<path fill="#EE6C4D" d="M295.043,508.998h-4.595c-0.352,0-0.708-0.246-0.708-0.797v-3.474l-0.429,0.197
			c-0.099,0.049-0.221,0.077-0.343,0.077c-0.322,0-0.61-0.192-0.732-0.488l-0.706-1.693c-0.166-0.398,0.021-0.845,0.422-1.016
			l2.043-0.831l0.107-0.001c0.104,0,0.189,0.03,0.254,0.065h0.925c0.368,0,0.613,0.141,0.73,0.418
			c0.114,0.271,0.381,0.426,0.733,0.426c0.342,0,0.616-0.167,0.734-0.447c0.062-0.149,0.229-0.398,0.648-0.398l1.005,0.034
			c0.064-0.036,0.149-0.034,0.252-0.034h0.103l0.104,0.01l1.925,0.724c0.415,0.176,0.602,0.633,0.436,1.035l-0.715,1.704
			c-0.124,0.297-0.417,0.488-0.749,0.488l0,0c-0.122,0-0.243-0.028-0.352-0.082l-0.424-0.197v3.484
			C295.712,508.94,295.2,508.998,295.043,508.998z M290.736,508.002h3.981v-3.568c0-0.439,0.383-0.797,0.853-0.797
			c0.127,0,0.247,0.027,0.357,0.081l0.47,0.219l0.559-1.335l-1.536-0.591c-0.042,0.012-0.088,0.019-0.138,0.019h-0.991
			c-0.312,0.526-0.884,0.843-1.544,0.843c-0.671,0-1.25-0.317-1.555-0.843l-0.98,0c-0.048,0-0.093-0.007-0.133-0.018l-1.543,0.628
			l0.542,1.296l0.48-0.221c0.098-0.048,0.221-0.077,0.345-0.077c0.46,0,0.835,0.356,0.835,0.795L290.736,508.002L290.736,508.002z"
			/>
	</g>
	<g>
		<path fill="#EE6C4D" d="M294.479,501.484l-0.963-0.251c0.021-0.078,0.03-0.142,0.03-0.199h0.996
			C294.542,501.178,294.521,501.324,294.479,501.484z"/>
	</g>
	<g>
		<path fill="#EE6C4D" d="M291.012,501.484c-0.042-0.16-0.062-0.307-0.062-0.45h0.996c0,0.058,0.01,0.121,0.03,0.199
			L291.012,501.484z"/>
	</g>
	<g>
		<path fill="#EE6C4D" d="M292.746,502.831c-0.815,0-1.529-0.554-1.734-1.347l0.963-0.25c0.092,0.354,0.409,0.6,0.771,0.6
			c0.362,0,0.679-0.246,0.771-0.6l0.963,0.249C294.274,502.277,293.562,502.831,292.746,502.831z"/>
	</g>
</g>
<g>
	<path fill="#EE6C4D" d="M307.657,517.458h-0.996v-16.346c0-0.866-0.704-1.57-1.569-1.57h-19.256c-0.865,0-1.57,0.704-1.57,1.57
		v16.346h-0.995v-16.346c0-1.416,1.15-2.566,2.565-2.566h19.256c1.415,0,2.565,1.15,2.565,2.566V517.458z"/>
</g>
<g>
	<path fill="#EE6C4D" d="M285.759,519.449h-0.996v-0.771c0-0.124-0.101-0.225-0.225-0.225h-1.541c-0.125,0-0.225,0.101-0.225,0.225
		v0.771h-0.996v-0.771c0-0.673,0.548-1.221,1.221-1.221h1.541c0.672,0,1.22,0.548,1.22,1.221V519.449z"/>
</g>
<g>
	<path fill="#EE6C4D" d="M309.15,519.449h-0.996v-0.771c0-0.124-0.101-0.225-0.225-0.225h-1.541c-0.124,0-0.225,0.101-0.225,0.225
		v0.771h-0.996v-0.771c0-0.673,0.547-1.221,1.22-1.221h1.541c0.673,0,1.221,0.548,1.221,1.221V519.449z"/>
</g>
<g>
	<path fill="#EE6C4D" d="M293.224,502.031h-0.995v-0.872c0-0.389,0.185-0.761,0.496-0.995l0.4-0.299
		c0.062-0.046,0.099-0.121,0.099-0.199v-0.871c0-0.137-0.112-0.25-0.249-0.25s-0.249,0.112-0.249,0.25v0.249h-0.996v-0.249
		c0-0.686,0.558-1.245,1.244-1.245c0.687,0,1.244,0.559,1.244,1.245v0.871c0,0.389-0.186,0.76-0.497,0.995l-0.399,0.299
		c-0.062,0.047-0.1,0.122-0.1,0.199V502.031z"/>
</g>
<g>
	<g>
		<path fill="#EE6C4D" d="M297.579,508.998h-1.321v-0.995h0.995v-3.568c0-0.265,0.143-0.512,0.381-0.66
			c0.255-0.159,0.572-0.181,0.829-0.056l0.47,0.218l0.559-1.334l-1.569-0.591c-0.042,0.012-0.171,0.02-0.171,0.02v-0.073
			l-0.033-0.013c0.011,0.004,0.033,0.008,0.033,0.011v-0.921c0,0-0.234,0.084-0.253,0.102c0.255-0.234,0.518-0.165,0.614-0.124
			l1.933,0.74c0.415,0.176,0.606,0.643,0.439,1.044l-0.713,1.708c-0.082,0.198-0.248,0.358-0.455,0.437
			c-0.21,0.079-0.444,0.07-0.644-0.027l-0.424-0.197v3.484C298.249,508.94,297.736,508.998,297.579,508.998z"/>
	</g>
	<g>
		<path fill="#EE6C4D" d="M297.016,501.484l-0.963-0.251c0.021-0.078,0.03-0.142,0.03-0.199h0.996
			C297.077,501.178,297.057,501.324,297.016,501.484z"/>
	</g>
	<g>
		<path fill="#EE6C4D" d="M293.548,501.484c-0.042-0.16-0.062-0.307-0.062-0.45h0.996c0,0.058,0.01,0.121,0.03,0.199
			L293.548,501.484z"/>
	</g>
	<g>
		<path fill="#EE6C4D" d="M295.282,502.831c-0.815,0-1.529-0.554-1.734-1.347l0.963-0.25c0.092,0.354,0.409,0.6,0.771,0.6
			s0.679-0.246,0.771-0.6l0.963,0.249C296.811,502.277,296.098,502.831,295.282,502.831z"/>
	</g>
</g>
<g>
	<path fill="#EE6C4D" d="M296.21,502.031h-0.995v-0.872c0-0.389,0.186-0.761,0.497-0.995l0.4-0.299
		c0.061-0.046,0.099-0.121,0.099-0.199v-0.871c0-0.137-0.112-0.25-0.249-0.25c-0.137,0-0.249,0.112-0.249,0.25v0.249h-0.996v-0.249
		c0-0.686,0.558-1.245,1.245-1.245c0.686,0,1.244,0.559,1.244,1.245v0.871c0,0.389-0.186,0.76-0.497,0.995l-0.399,0.299
		c-0.062,0.047-0.099,0.122-0.099,0.199V502.031z"/>
</g>
</svg>
