<?xml version="1.0"?>
<svg width="32" height="24" xmlns="http://www.w3.org/2000/svg" xmlns:svg="http://www.w3.org/2000/svg">
 <g>
  <title>Layer 1</title>
  <g id="svg_1" stroke="null">
   <g id="svg_2" stroke="null">
    <g id="svg_3" stroke="null">
     <path fill="#ee6c4d" d="m16.05933,11.21999c-0.4214,0 -0.70234,-0.28093 -0.77257,-0.70234c-0.07024,-1.54513 0.07023,-2.5284 0.49163,-2.9498c0.28094,-0.28094 0.49164,-0.49164 0.77257,-0.70234c0.56187,-0.49163 0.77257,-0.6321 0.77257,-1.2642c0,-0.70234 -0.56187,-1.2642 -1.2642,-1.2642c-0.70234,0 -1.2642,0.56186 -1.2642,1.2642c0,0.4214 -0.35117,0.77257 -0.77257,0.77257s-0.77257,-0.35117 -0.77257,-0.77257c0,-1.54514 1.2642,-2.73911 2.7391,-2.73911c1.54514,0 2.73911,1.2642 2.73911,2.73911c0,1.33444 -0.70233,1.8963 -1.33444,2.45817c-0.2107,0.14047 -0.35116,0.35117 -0.56186,0.49164c-0.07024,0.28093 -0.14047,1.12373 -0.07024,1.82607c0.07024,0.49163 -0.2107,0.8428 -0.70233,0.8428c0,0 0,0 0,0z" id="svg_4" stroke="null"/>
    </g>
    <g id="svg_5" stroke="null">
     <path fill="#ee6c4d" d="m28.49066,19.57778l-24.86266,0c-1.54514,0 -2.73911,-1.2642 -2.73911,-2.73911c0,-1.4749 0.8428,-2.45817 2.59864,-2.94981l12.43133,-4.07354c0.14047,-0.07024 0.35117,-0.07024 0.49164,0l12.29086,4.00331c1.68561,0.49163 2.52841,1.4749 2.52841,2.94981c0.07023,1.54513 -1.19397,2.80934 -2.73911,2.80934zm-12.3611,-8.28756l-12.22063,4.00331c-1.40467,0.4214 -1.4749,0.98327 -1.4749,1.54514c0,0.70234 0.56186,1.2642 1.2642,1.2642l24.86266,0c0.70234,0 1.26421,-0.56186 1.26421,-1.2642c0,-0.56187 -0.14047,-1.12374 -1.47491,-1.54514l-12.22063,-4.00331z" id="svg_6" stroke="null"/>
    </g>
   </g>
  </g>
 </g>
</svg>